<svg xmlns="http://www.w3.org/2000/svg" viewBox="0 0 693.1 331.01"><defs><style>.cls-1,.cls-2,.cls-3{fill:none;stroke:#00979c;}.cls-1{stroke-width:59px;}.cls-2{stroke-width:25px;}.cls-3{stroke-width:32px;}</style></defs><g id="Layer_2" data-name="Layer 2"><g id="Layer_1-2" data-name="Layer 1"><path class="cls-1" d="M169.31,30.84C78.31,23.59,1.86,131.31,39.17,214.55,75.53,304.88,212.36,329.38,277.43,257,340.49,195.23,364.79,100.11,442,51.31c78.46-53.58,204.77-3,220.08,92.25C677,234.74,578.74,323.44,489.85,296.65c-65.73-14.83-112.91-71-139.7-130.13-33-56.45-76.16-116.74-143.53-132a164.44,164.44,0,0,0-36.55-3.77Z"/><path class="cls-2" d="M115.72,160H230.54"/><path class="cls-3" d="M467.84,160h95.69m-48.8-47.84v95.69"/></g></g></svg>