<svg xmlns="http://www.w3.org/2000/svg" viewBox="0 0 600 92.5"><defs><style>.cls-1{fill:#0064a4;}</style></defs><g id="Layer_2" data-name="Layer 2"><g id="layer"><path class="cls-1" d="M282.7,20c0,9.3-5.3,14.2-13.3,14.2s-13.3-4.8-13.3-13.9V1.7h3.6V20.1c0,6.9,3.7,10.8,9.8,10.8,5.9,0,9.6-3.6,9.6-10.6V1.7h3.6V20Z"/><path class="cls-1" d="M293.3,33.6h-3.6V10h3.5v4.1a8.89,8.89,0,0,1,8.1-4.6c5.7,0,9,3.8,9,9.5V33.7h-3.5V19.9c0-4.4-2.4-7.1-6.5-7.1s-7.1,3-7.1,7.4V33.6Z"/><path class="cls-1" d="M317.1,4.9V1h4V4.9Zm.2,28.7V10h3.5V33.6Z"/><path class="cls-1" d="M345.6,10h3.8L339.1,33.8H336L325.7,10h3.9l7.9,19.6Z"/><path class="cls-1" d="M363,31.1a9.72,9.72,0,0,0,7.4-3.3l2.2,2a12.41,12.41,0,0,1-9.7,4.4c-6.5,0-11.8-5-11.8-12.3,0-6.9,4.8-12.3,11.3-12.3,7,0,11,5.6,11,12.5v1.1H354.7C355.2,28.2,358.8,31.1,363,31.1Zm6.9-10.6c-.4-4.3-2.8-8-7.5-8-4.1,0-7.2,3.4-7.7,8Z"/><path class="cls-1" d="M382.2,33.6h-3.5V10h3.5v6.2c1.7-3.9,5.2-6.8,9.6-6.6v3.8h-.3c-5.2,0-9.4,3.7-9.4,10.8v9.4Z"/><path class="cls-1" d="M404.1,34.1a16.08,16.08,0,0,1-9.8-3.5l1.8-2.5a14,14,0,0,0,8.2,3c2.8,0,4.9-1.5,4.9-3.7v-.1c0-2.4-2.8-3.3-5.9-4.2-3.7-1.1-7.8-2.3-7.8-6.7v-.1c0-4.1,3.4-6.8,8-6.8a16,16,0,0,1,8.5,2.6l-1.6,2.6a13.53,13.53,0,0,0-7-2.3c-2.8,0-4.6,1.5-4.6,3.4v.1c0,2.2,2.9,3.1,6.1,4.1,3.7,1.1,7.6,2.5,7.6,6.8v.1C412.5,31.5,408.8,34.1,404.1,34.1Z"/><path class="cls-1" d="M418.2,4.9V1h4V4.9Zm.2,28.7V10h3.5V33.6Z"/><path class="cls-1" d="M434,26.9c0,2.9,1.6,3.9,4,3.9a7.07,7.07,0,0,0,3.4-.8v3a9.3,9.3,0,0,1-4.2,1c-3.8,0-6.7-1.9-6.7-6.7V13h-3.3V9.9h3.3V2.8H434V9.9h7.5V13H434V26.9Z"/><path class="cls-1" d="M458.3,34.4c-2,4.9-4.3,6.7-7.9,6.7a10.27,10.27,0,0,1-5-1.2l1.2-2.8a7.24,7.24,0,0,0,3.7.9c2.1,0,3.4-1.1,4.8-4.4L444.4,10.1h3.9l8.6,19.7,7.6-19.7h3.7Z"/><path class="cls-1" d="M496.4,34.2a12.08,12.08,0,0,1-12.2-12.3,12.3,12.3,0,1,1,12.2,12.3Zm0-21.6c-5.1,0-8.6,4.1-8.6,9.2s3.7,9.2,8.7,9.2,8.7-4.1,8.7-9.1C505.2,16.7,501.4,12.6,496.4,12.6Z"/><path class="cls-1" d="M526.5,10.1v3h-7.4V33.6h-3.5V13.1h-3.2V10h3.2V7.9c0-5.2,2.6-7.9,7.1-7.9a11.42,11.42,0,0,1,3.9.6V3.7a10.61,10.61,0,0,0-3.4-.6c-2.7,0-4.1,1.6-4.1,5V10l7.4.1Z"/><path class="cls-1" d="M271.2,87.5c-9.2,0-16-7.3-16-16.5s6.8-16.6,16.2-16.6a16.79,16.79,0,0,1,12.5,5.1l-2.5,2.6c-2.7-2.6-5.7-4.4-10.1-4.4-7.1,0-12.4,5.7-12.4,13.2s5.3,13.2,12.4,13.2c4.4,0,7.3-1.7,10.3-4.6l2.4,2.3C280.7,85.2,277,87.5,271.2,87.5Z"/><path class="cls-1" d="M290.2,67.8l-1.1-2.9a19.47,19.47,0,0,1,8.6-2c6.4,0,10.1,3.3,10.1,9.5V86.8h-3.4V83.2a10.43,10.43,0,0,1-8.5,4.1c-4.4,0-8.8-2.5-8.8-7.4s4.1-7.7,10.1-7.7a25.22,25.22,0,0,1,7.3,1v-.8c0-4.2-2.6-6.4-7-6.4A17.43,17.43,0,0,0,290.2,67.8Zm.4,12.1c0,3,2.7,4.8,5.9,4.8,4.3,0,7.9-2.6,7.9-6.4V76a24.66,24.66,0,0,0-6.9-1C293,75,290.6,76.9,290.6,79.9Z"/><path class="cls-1" d="M314.6,86.9V53.5h3.5V86.9Z"/><path class="cls-1" d="M325.5,58.1V54.2h4v3.9Zm.2,28.8V63.3h3.5V86.9Z"/><path class="cls-1" d="M348.8,63.4v3h-7.4V86.9h-3.5V66.4h-3.2V63.3h3.2V61.2c0-5.2,2.6-7.9,7.1-7.9a11.42,11.42,0,0,1,3.9.6V57a10.61,10.61,0,0,0-3.4-.6c-2.7,0-4.1,1.6-4.1,5v1.9h7.4Z"/><path class="cls-1" d="M362.7,87.5a12.08,12.08,0,0,1-12.2-12.3,12.3,12.3,0,1,1,12.2,12.3Zm0-21.6c-5.1,0-8.6,4.1-8.6,9.2s3.7,9.2,8.7,9.2,8.7-4.1,8.7-9.1C371.5,70,367.7,65.9,362.7,65.9Z"/><path class="cls-1" d="M384,86.9h-3.5V63.3H384v6.2c1.7-3.9,5.2-6.8,9.6-6.6v3.8h-.3c-5.2,0-9.4,3.7-9.4,10.8v9.4Z"/><path class="cls-1" d="M401.6,86.9h-3.5V63.3h3.5v4.1a8.89,8.89,0,0,1,8.1-4.6c5.7,0,9,3.8,9,9.5V87h-3.5V73.2c0-4.4-2.4-7.1-6.5-7.1s-7.1,3-7.1,7.4Z"/><path class="cls-1" d="M425.4,58.1V54.2h4v3.9Zm.2,28.8V63.3h3.5V86.9Z"/><path class="cls-1" d="M437.8,67.8l-1.1-2.9a19.47,19.47,0,0,1,8.6-2c6.4,0,10.1,3.3,10.1,9.5V86.8H452V83.2a10.43,10.43,0,0,1-8.5,4.1c-4.4,0-8.8-2.5-8.8-7.4s4.1-7.7,10.1-7.7a25.22,25.22,0,0,1,7.3,1v-.8c0-4.2-2.6-6.4-7-6.4A17.43,17.43,0,0,0,437.8,67.8Zm.4,12.1c0,3,2.7,4.8,5.9,4.8,4.3,0,7.9-2.6,7.9-6.4V76a24.66,24.66,0,0,0-6.9-1C440.6,75,438.2,76.9,438.2,79.9Z"/><path class="cls-1" d="M463.1,86.9h-1.6V82.1h4.2v4.1c0,3.7-1.6,5.5-5.1,6.3l-.5-1.6C462.4,90.1,463.3,88.9,463.1,86.9Z"/><path class="cls-1" d="M489.5,54.9v32h-3.6v-32Z"/><path class="cls-1" d="M500.9,86.9h-3.5V63.3h3.5v6.2c1.7-3.9,5.2-6.8,9.6-6.6v3.8h-.3c-5.2,0-9.4,3.7-9.4,10.8l.1,9.4Z"/><path class="cls-1" d="M532.4,63.3h3.8L525.9,87.1h-3.1L512.6,63.3h3.9l7.9,19.6Z"/><path class="cls-1" d="M540.9,58.1V54.2h4v3.9Zm.2,28.8V63.3h3.5V86.9Z"/><path class="cls-1" d="M555.4,86.9h-3.5V63.3h3.5v4.1a8.89,8.89,0,0,1,8.1-4.6c5.7,0,9,3.8,9,9.5V87H569V73.2c0-4.4-2.4-7.1-6.5-7.1s-7.1,3-7.1,7.4Z"/><path class="cls-1" d="M589.6,84.4a9.72,9.72,0,0,0,7.4-3.3l2.2,2a12.41,12.41,0,0,1-9.7,4.4c-6.5,0-11.8-5-11.8-12.3,0-6.9,4.8-12.3,11.3-12.3,7,0,11,5.6,11,12.5v1.1H581.3A8.17,8.17,0,0,0,589.6,84.4Zm6.9-10.6c-.4-4.3-2.8-8-7.5-8-4.1,0-7.2,3.4-7.7,8Z"/><path class="cls-1" d="M0,49.5V1.6H23.9V49c0,12.3,6.2,18.2,15.7,18.2s15.8-5.6,15.8-17.5V1.7H79.3V49c0,27.4-15.7,39.6-40,39.6C15.2,88.5,0,76.2,0,49.5Z"/><path class="cls-1" d="M90.8,44.5v-.2c0-24.9,19-44.3,44.8-44.3,17.4,0,28.6,7.3,36.2,17.7L154,31.5c-4.9-6-10.5-10-18.6-10-11.9,0-20.3,10.2-20.3,22.7v.2c0,12.8,8.4,22.8,20.3,22.8,8.9,0,14.1-4.1,19.2-10.3l17.8,12.7c-8,11.1-18.9,19.2-37.6,19.2C110.4,88.6,90.8,70,90.8,44.5Z"/><path class="cls-1" d="M185.7,1.6h23.6V86.9H185.7Z"/></g></g></svg>