<svg xmlns="http://www.w3.org/2000/svg" viewBox="0 0 49.46 48.66"><defs><style>.cls-1{fill:#e6342a;}.cls-2{fill:#e63429;}.cls-3{fill:#e6271a;}.cls-4{fill:#e7392f;}</style></defs><g id="Layer_2" data-name="Layer 2"><g id="Layer_1-2" data-name="Layer 1"><path class="cls-1" d="M29.65,38.68c.28-9-5.76-17-14-18.78-1.32-.28-3.41-1.18-3.95.53-.65,2.05,1.59,1.85,2.95,2.24,8.66,2.47,13.55,10.12,11.77,18.27-.46,2.08-1.13,4-3.83,3.12-2-.64-4.44-.72-3.57-4.38,1.34-5.59-1.13-8.69-7-10.27S3.28,23.93,4.39,18.77c1.05-4.87,5.53-7.21,11.69-6.09C28.31,14.9,37.47,26,37.22,38.1c-.07,3.12-.64,5.51-4.62,5.37S29.27,40.79,29.65,38.68Z"/><path class="cls-1" d="M17.48,2.67C30.11,3.34,46,18.8,47,31.32c.21,2.64-1.47,4.37-3.2,5.67-1.46,1.11-3.25,1.24-3.68-1.7-2.2-15.11-11.29-23.7-26.5-26-3.46-.53-2.66-2.15-1.66-4C12.7,3.91,15.85,2.59,17.48,2.67Z"/><path class="cls-2" d="M24.43.2l6-.2C40.5,2,47,7.79,49.46,17.67l-.2,6.88c-1.28,0-1.55-1-1.93-1.85A38.38,38.38,0,0,0,26.24,2.14C25.32,1.76,24.37,1.45,24.43.2Z"/><path class="cls-3" d="M27.62,47.06a25.7,25.7,0,0,0,15.65-5.47c.69-.51,1.4-2,2.38-1s-.48,1.59-1.1,2.16c-9.37,8.6-26.85,7.62-36.7-2-9.58-9.37-10.55-25.9-2-35.17.64-.71,1.61-2.06,2.27-1.5,1.55,1.33-.39,2.19-1,3.1C1,15.48-.1,24.36,4.66,33.39S17.25,46.91,27.62,47.06Z"/><path class="cls-4" d="M12.67,39.52c-2.07-.22-3.31-1.33-3.21-3.43A3.12,3.12,0,0,1,13,33a3.1,3.1,0,0,1,3.25,3.44C16.19,38.49,14.78,39.46,12.67,39.52Z"/></g></g></svg>