<svg xmlns="http://www.w3.org/2000/svg" viewBox="0 0 102.65 30.51"><defs><style>.cls-1,.cls-2{fill:#fff;}.cls-2{font-size:8.75px;font-family:LucidaHandwriting-Italic, Lucida Handwriting;font-style:italic;}.cls-3{font-size:9.38px;}</style></defs><g id="Layer_2" data-name="Layer 2"><g id="Layer_1-2" data-name="Layer 1"><path class="cls-1" d="M13.12.43a7.36,7.36,0,0,0-3.93,3.4c-.39.8-.39.8-.62.1S8.34,3.22,8,4a5.63,5.63,0,0,0-.3,1c0,.25-.11.23-1-.35s-1-.64-.83,0A4.49,4.49,0,0,1,6,5.16a5.14,5.14,0,0,1-.83.67c-2,1.41-5,5.54-5,6.86A18.2,18.2,0,0,0,2,11.83c2-1,2.31-1.09,1.53-.52A8.55,8.55,0,0,0,0,18.65c0,2.87.09,3.09.75,2A12,12,0,0,1,3.27,17.8c.07,0,0,.1-.08.23a7.34,7.34,0,0,0-1.11,2.71c-.21,2.05,1.45,3.74,4.69,4.76,1.43.45,1.45.45.83-.29a3.35,3.35,0,0,1-.94-2.07c0-.57,0-.57.66,0,1.37,1.16,2.72,1.73,6,2.48a27.61,27.61,0,0,1,6.29,2.1c1.56.78,1.52.63-.31-1.12a22.8,22.8,0,0,0-8.06-5.08c-2.93-1.1-3.48-2.93-1.48-4.92a8.81,8.81,0,0,1,3.5-1.86,7.67,7.67,0,0,0,.88-.25c.16-.16-3.13-.7-5.7-.94-1.85-.17-1.85-.17-1.36-.39a10,10,0,0,1,3.91-.7c2.13-.09,2.15-.25.06-1.62-.83-.56-.91-.65-.66-.72a14.34,14.34,0,0,1,4.08.17c.51.14.84.18.8.1s-.25-.4-.46-.7a5.73,5.73,0,0,1-.37-.61s.73.15,1.62.38c1.88.52,1.81.52,1.81.24S18,9.54,19,10.87c.51.66.51.66-.15.12a5.1,5.1,0,0,0-1.9-.9c-.68-.19-1.34-.41-1.45-.45s.21.4.74,1A2.89,2.89,0,0,0,18.49,12c1.62.4,5.83,1.95,4.53,1.67s-1.63-.15-.33.16c1.87.48,2,.53,1.8.72a1.56,1.56,0,0,0,0,1.34c.4,1.1-2.13,1.73-4.59,1.13s-4-.11-4.21,1.36c-.12,1,1.28,2.14,3,2.42.7.1.7,0,0-.4-2-1.19-1.86-2.08.32-1.53,2.53.66,4.83-.26,7.68-3.06,1.68-1.65,1.3-2-3.92-3.52-1.91-.57-2-.69-2.72-2.84a4.9,4.9,0,0,0-3.45-2.84c-.64-.2-.65-.06.3-2.21.45-1,.92-2.07,1.05-2.37.24-.56.24-.56-1.78.45s-2,1-2.33,2a3,3,0,0,1-.36.91A39.18,39.18,0,0,1,14.3.87C14.59-.19,14.57-.21,13.12.43Z"/><text class="cls-2" transform="translate(22.61 27.46)"> <tspan class="cls-3" x="2.95" y="0" xml:space="preserve">Eric  Lonewolf</tspan></text></g></g></svg>