<svg xmlns="http://www.w3.org/2000/svg" viewBox="0 0 168.6 166"><defs><style>.cls-1{fill:#f8a147;}.cls-2{fill:#3a5d7f;}</style></defs><g id="Layer_2" data-name="Layer 2"><g id="Layer_1-2" data-name="Layer 1"><path class="cls-1" d="M119.3,91.2a3.15,3.15,0,0,1,1.3,1.7l14.5,1.3-.2,2L120.6,95a3.28,3.28,0,0,1-3.5,2.4,2.45,2.45,0,0,1-1.2-.4l-8.4,9.9-1.5-1.3,8.5-10a3.13,3.13,0,0,1-.4-1.9,3.53,3.53,0,0,1,3.3-3.1C117.4,90.7,118.7,90.7,119.3,91.2Z"/><path class="cls-1" d="M139.8,132.6a3.52,3.52,0,0,1-3.3,2.7,5.85,5.85,0,0,1-1.3-.2l-7.6,10.6-1.6-1.2,7.6-10.7a3.08,3.08,0,0,1-.6-1.9,3.37,3.37,0,0,1,3.4-3.4,2,2,0,0,1,.8.1l5.2-8.7,1.7,1-5.2,8.7a5.58,5.58,0,0,1,.5.8,2,2,0,0,1,.3,1.1A1.47,1.47,0,0,1,139.8,132.6Z"/><path class="cls-1" d="M108,60.1l9.6-9.5a3.28,3.28,0,0,0,5.5-1.1l13.1,2.3.4-2-13.3-2.3a3.7,3.7,0,0,0-.5-1.1l9.4-9.9-1.4-1.4-9.5,10c-.2-.1-.4-.1-.6-.2a3.39,3.39,0,0,0-3.9,2.7,1.7,1.7,0,0,0,0,1l-10.1,10Z"/><path class="cls-1" d="M12.5,126.3a3.37,3.37,0,0,0-3.4,3.4,3,3,0,0,0,.2,1L1.1,142.3l1.6,1.2,7.8-11a3.38,3.38,0,0,0,2,.6,3.43,3.43,0,0,0,3.3-2.7H29.1v-2H15.5A3.37,3.37,0,0,0,12.5,126.3Z"/><path class="cls-1" d="M77,118.3a3.42,3.42,0,0,0-3.8,3.9l-9.8,10.3,1.4,1.4,9.3-9.8a3.1,3.1,0,0,0,1.9.9,3.5,3.5,0,0,0,3.7-2.2l13.2,1.9.3-2-13.4-1.9A3.44,3.44,0,0,0,77,118.3Z"/><path class="cls-1" d="M45.7,96.5a3.37,3.37,0,0,0-3.4,3.4,3,3,0,0,0,.2,1l-8.2,11.6,1.6,1.2,7.8-11a3.38,3.38,0,0,0,2,.6,3.43,3.43,0,0,0,3.3-2.7H62.3v-2H48.8A3.4,3.4,0,0,0,45.7,96.5Z"/><path class="cls-1" d="M14.8,90.6,31.2,69.7l-1.6-1.2L13.5,89.1a3.45,3.45,0,0,0-1.8-.5A3.37,3.37,0,0,0,8.3,92a3.29,3.29,0,0,0,.6,1.9L1.2,104.5l1.6,1.2,7.6-10.6a5,5,0,0,0,1.3.3A3.43,3.43,0,0,0,15,92.7l14.3.1v-2Z"/><path class="cls-1" d="M2.5,55.6l7.1-7.3a3.42,3.42,0,0,0,4.9-4.4c-.1-.2-.2-.3-.2-.4l5.5-5.7-1.7-1.3-5.5,5.7a3.61,3.61,0,0,0-2.7.1,3.41,3.41,0,0,0-1.7,4.4L.8,54.3Z"/><path class="cls-1" d="M90.3,128.5l-6.2,4.9a3.61,3.61,0,0,0-2.7-.3,3.46,3.46,0,0,0-2.2,4.2l-8.3,6.6,1.5,1.5,8-6.3a3.41,3.41,0,0,0,5.4-3.7.76.76,0,0,0-.2-.4l6.2-4.9Z"/><path class="cls-1" d="M59.8,127.7l-9.3,6.4a3.69,3.69,0,0,0-2.7-.5,3.49,3.49,0,0,0-2.5,4.1l-9.2,5.9,1.4,1.6,8.9-5.7a3.47,3.47,0,0,0,5.7-3.4c0-.1-.1-.2-.1-.4l9.3-6.5Z"/><path class="cls-1" d="M77.9,82.6l14.9-22-.4-.2v-2H78.9a3.31,3.31,0,0,0-3.1-2,3.37,3.37,0,0,0-3.4,3.4,3,3,0,0,0,.2,1L64.3,72.4l1.6,1.2,7.8-11a3.38,3.38,0,0,0,2,.6A3.43,3.43,0,0,0,79,60.5H90.4L76.3,81.3a3.42,3.42,0,0,0-1.8-.4,3.38,3.38,0,0,0-3.2,3.6,2.87,2.87,0,0,0,.7,1.8L65.1,97.5l1.7,1.1,6.9-11.1a5.07,5.07,0,0,0,1.3.2,3.41,3.41,0,0,0,3.1-2.9l14.3-.9-.1-2Z"/><circle class="cls-1" cx="120.3" cy="129.4" r="3.3"/><polygon class="cls-1" points="110 144.9 108.4 143.8 118.6 129.1 118.8 129 134.2 119.4 135.2 121.1 120 130.6 110 144.9"/><circle class="cls-1" cx="123.3" cy="69.2" r="3.3"/><polygon class="cls-1" points="123.5 70.7 107.5 68.5 107.8 66.6 123.1 68.6 134.6 61.5 135.6 63.2 123.5 70.7"/><rect class="cls-1" x="115.06" y="86.69" width="21.6" height="2" transform="translate(-27.49 91.53) rotate(-36.3)"/><path class="cls-1" d="M66.7,45.1a3.38,3.38,0,0,1,1.9.9l13.6-5.3.7,1.9L69.6,47.8a3.26,3.26,0,0,1-2.1,3.7,2.74,2.74,0,0,1-1.3.2L63,64.5,61.1,64l3.2-12.8a3.49,3.49,0,0,1-1.2-1.5,3.42,3.42,0,0,1,1.6-4.2A3.71,3.71,0,0,1,66.7,45.1Z"/><rect class="cls-1" x="58.92" y="35.2" width="2" height="14.6" transform="translate(-12.62 54.06) rotate(-44.4)"/><rect class="cls-1" x="105.11" y="75.47" width="20.8" height="2" transform="translate(-21.81 94.73) rotate(-41.08)"/><circle class="cls-1" cx="48.2" cy="77.7" r="3.3"/><polygon class="cls-1" points="48.5 79.2 32.5 77.1 32.7 75.1 48 77.1 59.5 70.1 60.5 71.8 48.5 79.2"/><rect class="cls-1" x="30.01" y="84.01" width="20.8" height="2" transform="translate(-45.91 47.48) rotate(-41.08)"/><polygon class="cls-1" points="3.2 81.6 1.5 80.5 14 61.5 2.5 63.4 2.2 61.4 18.2 58.8 3.2 81.6"/><rect class="cls-1" x="15.28" y="53.54" width="16.3" height="2" transform="translate(-29.28 27.24) rotate(-39.38)"/><circle class="cls-1" cx="155.7" cy="133.7" r="3.3"/><polygon class="cls-1" points="157.6 147.3 154.2 133.4 161.3 118.9 163.1 119.8 156.3 133.7 159.5 146.8 157.6 147.3"/><rect class="cls-1" x="150.22" y="119.21" width="2" height="15.5" transform="translate(-43.99 97.33) rotate(-31.39)"/><circle class="cls-1" cx="121" cy="109.3" r="3.3"/><polygon class="cls-1" points="106.5 119.7 105.4 118 121.3 108.1 135.5 114.8 134.7 116.6 121.4 110.4 106.5 119.7"/><rect class="cls-1" x="138.3" y="131.7" width="2" height="13.4" transform="translate(-45.44 71.84) rotate(-25)"/><circle class="cls-1" cx="46.3" cy="118.8" r="3.3"/><polygon class="cls-1" points="31.8 129.2 30.7 127.5 46.6 117.7 60.8 124.3 59.9 126.1 46.7 120 31.8 129.2"/><circle class="cls-1" cx="78.1" cy="99.4" r="3.3"/><circle class="cls-1" cx="16.1" cy="59.7" r="3.3"/><circle class="cls-1" cx="29.8" cy="49.4" r="3.3"/><circle class="cls-1" cx="45.8" cy="53.6" r="3.3"/><polygon class="cls-1" points="63.5 109.8 62.4 108.1 78.3 98.3 92.5 104.9 91.7 106.7 78.4 100.6 63.5 109.8"/><rect class="cls-1" x="74.68" y="115.27" width="18.5" height="2" transform="translate(-47.79 59.6) rotate(-30.9)"/><path class="cls-1" d="M18.5,116a3.42,3.42,0,0,0,3.8-3.9l9.8-10.3-1.4-1.4-9.3,9.8a3.1,3.1,0,0,0-1.9-.9,3.5,3.5,0,0,0-3.7,2.2L2.6,109.6l-.3,2,13.4,1.9A3.44,3.44,0,0,0,18.5,116Z"/><rect class="cls-1" x="2.4" y="116.98" width="18.5" height="2" transform="translate(-58.93 22.72) rotate(-30.9)"/><polygon class="cls-1" points="61.6 64.1 46.4 54.8 34.3 63.2 33.1 61.6 46.3 52.4 62.7 62.4 61.6 64.1"/><rect class="cls-1" x="41.72" y="90.37" width="21.8" height="2" transform="translate(-50.35 68.72) rotate(-47.65)"/><rect class="cls-1" x="43.72" y="110.93" width="19.5" height="2" transform="translate(-63.65 71.07) rotate(-45.23)"/><rect class="cls-1" x="20.19" y="126.8" width="2" height="21.1" transform="translate(-95.78 62.31) rotate(-48.55)"/><polygon class="cls-1" points="29.2 50.9 25.5 37.5 27.4 37 30.4 47.8 48.6 36.4 49.7 38.1 29.2 50.9"/><path class="cls-1" d="M7.3,3.6V18.8H3.7V3.6H0V.5H11V3.6Z"/><path class="cls-1" d="M45.1.5V18.8H41.5V.5Z"/><path class="cls-1" d="M76.8,18.8V0h2.6L89,12.8h0V.5h3.6V19.2H90L80.4,6.4h0V18.8Z"/><path class="cls-1" d="M128.4,10.4,122.7.5h4.2l3.2,6.4L133.6.5h4.2L132,10.4v8.4h-3.6V10.4Z"/><path class="cls-2" d="M94.3,166H.1L.2,34.8H80.7L94.3,54.4ZM35.8,142.8h23V60.2h8.5v82.7H90.2l-.1-87-11.8-17H4.4v104h23V60.2h8.3S35.7,142.8,35.8,142.8Z"/><path class="cls-2" d="M168.5,166H105.6l.1-131.2h31.7v82.9h31.2l-.1,48.3ZM133,38.9H110v104h54.3v-21H133Z"/></g></g></svg>